<?xml version="1.0" encoding="UTF-8"?>
<!DOCTYPE svg PUBLIC "-//W3C//DTD SVG 1.1//EN" "http://www.w3.org/Graphics/SVG/1.1/DTD/svg11.dtd">
<!-- Creator: CorelDRAW 2018 (64 Bit Versão de avaliação) -->
<svg xmlns="http://www.w3.org/2000/svg" xml:space="preserve" width="150mm" height="39.1739mm" version="1.1" style="shape-rendering:geometricPrecision; text-rendering:geometricPrecision; image-rendering:optimizeQuality; fill-rule:evenodd; clip-rule:evenodd"
viewBox="0 0 15000 3917.39"
 xmlns:xlink="http://www.w3.org/1999/xlink">
 <defs>
  <style type="text/css">
   <![CDATA[
    .fil2 {fill:#CF3034;fill-rule:nonzero}
    .fil0 {fill:#352F2D;fill-rule:nonzero}
    .fil1 {fill:#3FA14C;fill-rule:nonzero}
   ]]>
  </style>
 </defs>
 <g id="Camada_x0020_1">
  <metadata id="CorelCorpID_0Corel-Layer"/>
  <g id="_2094688866448">
   <path class="fil0" d="M4001.71 3362.45c0,77.78 -26.6,137.89 -79.77,179.69 -53.19,41.78 -129.27,62.84 -228.29,62.84l-90.47 0 0 302.03 -89.54 0 0 -768.2 199.57 0c192.22,0 288.5,74.44 288.5,223.64zm-398.53 165.65l80.69 0c79.15,0 136.6,-12.81 172.05,-38.44 35.46,-25.32 53.19,-66.51 53.19,-122.95 0,-50.94 -16.51,-88.78 -49.83,-113.49 -33.3,-24.7 -85.57,-37.22 -156.15,-37.22l-99.95 0 0 312.1zm901.26 378.91l-17.43 -82.06 -3.97 0c-29.04,36.3 -57.76,60.7 -86.19,73.21 -28.43,12.81 -64.17,19.23 -107.26,19.23 -57.15,0 -101.78,-14.64 -134.16,-44.24 -32.71,-29.28 -48.91,-71.08 -48.91,-125.39 0,-116.24 93.21,-177.25 279.64,-182.74l97.78 -3.36 0 -35.69c0,-45.15 -9.77,-78.42 -29.02,-100.07 -19.56,-21.67 -50.74,-32.35 -93.52,-32.35 -47.97,0 -102.37,14.66 -163.2,44.24l-26.88 -66.81c28.41,-15.56 59.59,-27.45 93.51,-36.31 33.92,-8.84 67.85,-13.12 101.77,-13.12 68.76,0 119.49,15.26 152.81,45.78 33.31,30.5 49.8,79.32 49.8,146.74l0 392.94 -64.77 0zm-197.44 -61.62c54.4,0 97.18,-14.95 128.36,-44.55 30.86,-29.58 46.45,-71.38 46.45,-125.08l0 -51.86 -87.4 3.66c-69.37,2.44 -119.49,13.11 -150.06,32.03 -30.87,19.23 -46.15,48.81 -46.15,89.39 0,31.42 9.48,55.53 28.73,71.7 18.95,16.47 45.54,24.71 80.07,24.71zm705.36 -524.74c25.67,0 48.59,2.13 69.07,6.09l-12.23 81.16c-23.84,-5.19 -44.93,-7.93 -62.96,-7.93 -46.74,0 -86.48,18.92 -119.8,56.74 -33.3,37.83 -49.81,84.81 -49.81,141.25l0 309.05 -87.4 0 0 -575.99 72.12 0 10.08 106.77 4.3 0c21.38,-37.52 47.05,-66.5 77.31,-86.94 30.26,-20.14 63.26,-30.2 99.32,-30.2zm531.77 586.36l-17.44 -82.06 -3.96 0c-29.04,36.3 -57.77,60.7 -86.19,73.21 -28.42,12.81 -64.18,19.23 -107.26,19.23 -57.16,0 -101.77,-14.64 -134.17,-44.24 -32.7,-29.28 -48.89,-71.08 -48.89,-125.39 0,-116.24 93.21,-177.25 279.62,-182.74l97.8 -3.36 0 -35.69c0,-45.15 -9.78,-78.42 -29.03,-100.07 -19.56,-21.67 -50.73,-32.35 -93.52,-32.35 -47.97,0 -102.37,14.66 -163.2,44.24l-26.89 -66.81c28.43,-15.56 59.6,-27.45 93.52,-36.31 33.92,-8.84 67.84,-13.12 101.77,-13.12 68.76,0 119.49,15.26 152.8,45.78 33.32,30.5 49.81,79.32 49.81,146.74l0 392.94 -64.77 0zm-197.44 -61.62c54.4,0 97.19,-14.95 128.36,-44.55 30.87,-29.58 46.45,-71.38 46.45,-125.08l0 -51.86 -87.41 3.66c-69.37,2.44 -119.48,13.11 -150.05,32.03 -30.87,19.23 -46.15,48.81 -46.15,89.39 0,31.42 9.48,55.53 28.74,71.7 18.94,16.47 45.52,24.71 80.06,24.71zm837.07 61.62l0 -372.5c0,-46.98 -10.69,-82.06 -32.09,-105.25 -21.37,-22.89 -55,-34.48 -100.55,-34.48 -60.2,0 -104.5,16.17 -132.62,48.81 -28.12,32.64 -42.17,86.33 -42.17,161.39l0 302.03 -87.42 0 0 -575.99 71.22 0 14.05 78.71 4.28 0c18.03,-28.38 43.09,-50.34 75.49,-65.9 32.09,-15.56 68.15,-23.18 107.57,-23.18 69.68,0 121.94,16.77 157.08,50.02 35.16,33.56 52.57,86.96 52.57,160.48l0 375.86 -87.41 0zm621.62 0l-17.43 -82.06 -3.97 0c-29.04,36.3 -57.76,60.7 -86.18,73.21 -28.43,12.81 -64.18,19.23 -107.27,19.23 -57.15,0 -101.77,-14.64 -134.16,-44.24 -32.69,-29.28 -48.9,-71.08 -48.9,-125.39 0,-116.24 93.22,-177.25 279.63,-182.74l97.79 -3.36 0 -35.69c0,-45.15 -9.78,-78.42 -29.01,-100.07 -19.58,-21.67 -50.75,-32.35 -93.54,-32.35 -47.97,0 -102.37,14.66 -163.2,44.24l-26.87 -66.81c28.42,-15.56 59.59,-27.45 93.5,-36.31 33.92,-8.84 67.85,-13.12 101.77,-13.12 68.76,0 119.51,15.26 152.81,45.78 33.31,30.5 49.8,79.32 49.8,146.74l0 392.94 -64.77 0zm-197.44 -61.62c54.4,0 97.19,-14.95 128.36,-44.55 30.87,-29.58 46.45,-71.38 46.45,-125.08l0 -51.86 -87.39 3.66c-69.38,2.44 -119.5,13.11 -150.07,32.03 -30.87,19.23 -46.15,48.81 -46.15,89.39 0,31.42 9.5,55.53 28.74,71.7 18.94,16.47 45.53,24.71 80.06,24.71zm-20.46 -603.77c16.8,-21.65 35.13,-48.2 54.7,-79.01 19.24,-30.81 34.52,-57.36 45.84,-80.24l106.36 0 0 10.99c-15.59,22.88 -38.5,50.94 -69.06,84.2 -30.58,33.25 -57.16,59.18 -79.48,77.18l-58.36 0 0 -13.12z"/>
   <polygon class="fil0" points="3491.98,2902.43 3491.98,2065.52 3669.78,2065.52 3669.78,2902.43 "/>
   <path class="fil0" d="M4625.73 2902.43l-226.07 0 -364.56 -633.17 -5.34 0c7.34,112.01 11,191.79 11,239.3l0 393.87 -158.82 0 0 -836.91 224.07 0 364.24 626.86 4 0c-5.67,-108.7 -8.32,-185.8 -8.32,-230.68l0 -396.18 159.8 0 0 836.91zm708.54 -232.33c0,75.45 -27.3,134.94 -81.56,178.49 -54.62,43.53 -130.52,65.14 -227.75,65.14 -89.57,0 -168.47,-16.62 -237.39,-50.2l0 -164.85c56.61,24.94 104.55,42.55 143.83,52.85 38.96,10.3 74.92,15.62 107.22,15.62 38.96,0 68.92,-7.31 89.89,-22.27 20.97,-14.96 31.3,-36.89 31.3,-66.46 0,-16.3 -4.66,-30.92 -13.65,-43.88 -9.32,-12.63 -22.97,-24.94 -40.62,-36.9 -17.66,-11.62 -53.94,-30.57 -108.55,-56.5 -51.27,-23.94 -89.56,-46.87 -115.18,-69.14 -25.64,-22.26 -46.28,-47.85 -61.6,-77.43 -15.31,-29.59 -22.98,-63.82 -22.98,-103.04 0,-74.12 25.31,-132.28 75.58,-174.83 50.27,-42.21 119.53,-63.48 208.42,-63.48 43.61,0 85.22,4.99 124.86,15.3 39.62,10.29 80.9,24.92 123.86,43.86l-57.28 137.93c-44.62,-18.28 -81.56,-31.24 -110.87,-38.54 -29.29,-6.99 -57.93,-10.64 -86.22,-10.64 -33.64,0 -59.6,7.64 -77.58,23.26 -17.98,15.62 -26.97,36.23 -26.97,61.5 0,15.61 3.67,29.24 10.99,40.88 7.32,11.62 18.97,22.93 34.96,33.89 15.64,10.97 53.26,30.25 112.53,58.51 78.24,37.56 132.18,74.77 161.14,112.33 28.96,37.56 43.62,83.76 43.62,138.6z"/>
   <path class="fil0" d="M5808.95 2902.43l-177.78 0 0 -689.34 -227.4 0 0 -147.57 632.93 0 0 147.57 -227.75 0 0 689.34zm358.11 0l0 -836.91 177.79 0 0 836.91 -177.79 0zm713.33 0l-177.78 0 0 -689.34 -227.4 0 0 -147.57 632.91 0 0 147.57 -227.73 0 0 689.34z"/>
   <path class="fil0" d="M7918.01 2065.52l0 541.43c0,61.83 -13.99,116 -41.62,162.53 -27.64,46.87 -67.93,82.43 -120.19,107.03 -52.28,24.92 -114.22,37.22 -185.79,37.22 -107.88,0 -191.45,-27.58 -251.04,-82.77 -59.59,-54.84 -89.57,-130.28 -89.57,-226.33l0 -539.11 177.13 0 0 512.18c0,64.48 12.99,111.68 38.96,141.93 25.96,30.24 68.92,45.53 129.19,45.53 58.25,0 100.21,-15.29 126.5,-45.53 26.31,-30.25 39.3,-78.11 39.3,-142.92l0 -511.19 177.13 0z"/>
   <polygon class="fil0" points="8454.76,2902.43 8276.98,2902.43 8276.98,2213.09 8049.57,2213.09 8049.57,2065.52 8682.49,2065.52 8682.49,2213.09 8454.76,2213.09 "/>
   <path class="fil0" d="M9573.83 2482.64c0,138.6 -34.31,245.3 -103.22,319.41 -68.91,74.46 -167.47,111.68 -295.99,111.68 -128.51,0 -227.07,-37.22 -295.98,-111.68 -68.92,-74.11 -103.22,-181.14 -103.22,-320.41 0,-139.26 34.63,-245.95 103.55,-319.4 68.92,-73.46 167.81,-110.02 296.65,-110.02 128.85,0 227.73,36.9 295.99,111.02 68.26,74.11 102.22,180.47 102.22,319.4zm-611.96 0c0,93.4 17.64,163.86 53.27,211.39 35.63,47.53 88.56,71.13 159.48,71.13 141.84,0 212.76,-94.06 212.76,-282.52 0,-188.45 -70.59,-282.84 -211.76,-282.84 -70.59,0 -123.87,23.59 -159.81,71.13 -35.96,47.53 -53.94,118.32 -53.94,211.71zm1270.22 419.79l-174.8 0 0 -836.91 480.44 0 0 145.25 -305.64 0 0 216.04 284.67 0 0 144.58 -284.67 0 0 331.04z"/>
   <path class="fil0" d="M11183.74 2902.43l-482.77 0 0 -836.91 482.77 0 0 145.25 -304.97 0 0 183.8 284 0 0 145.57 -284 0 0 215.71 304.97 0 0 146.58zm871.83 -426.44c0,137.93 -39.29,243.31 -117.87,316.42 -78.57,73.46 -192.1,110.02 -340.26,110.02l-237.4 0 0 -836.91 263.36 0c136.85,0 243.06,35.9 318.64,108.02 75.57,72.12 113.53,173.16 113.53,302.45zm-184.45 4.32c0,-179.81 -79.57,-269.54 -238.72,-269.54l-94.56 0 0 545.08 76.24 0c171.47,0 257.04,-91.73 257.04,-275.54zm842.19 422.12l-482.77 0 0 -836.91 482.77 0 0 145.25 -304.97 0 0 183.8 283.99 0 0 145.57 -283.99 0 0 215.71 304.97 0 0 146.58zm354.1 -465.32l57.27 0c56.26,0 97.54,-9.3 124.51,-28.25 26.98,-18.61 40.3,-47.87 40.3,-88.08 0,-39.55 -13.66,-67.8 -40.95,-84.76 -27.64,-16.95 -69.92,-25.25 -127.2,-25.25l-53.93 0 0 226.34zm0 144.25l0 321.07 -177.8 0 0 -836.91 244.39 0c113.87,0 198.1,20.61 253.05,61.82 54.6,41.55 81.89,104.36 81.89,188.79 0,49.18 -13.66,93.06 -40.61,131.29 -27.31,38.54 -65.94,68.8 -115.54,90.4 126.18,188.12 208.43,309.77 246.71,364.61l-197.44 0 -200.09 -321.07 -94.56 0z"/>
   <path class="fil0" d="M14174.5 2902.43l-60.93 -199.09 -305.65 0 -60.92 199.09 -191.44 0 295.99 -840.57 217.41 0 296.99 840.57 -191.45 0zm-103.22 -348c-56.26,-180.48 -87.9,-282.84 -94.88,-306.44 -6.99,-23.6 -12.31,-42.54 -15.32,-56.17 -12.64,48.85 -48.93,169.84 -108.53,362.61l218.73 0z"/>
   <polygon class="fil0" points="14482.27,2902.43 14482.27,2065.52 14660.07,2065.52 14660.07,2755.85 15000,2755.85 15000,2902.43 "/>
   <path class="fil1" d="M1893.18 801.55c0,44.96 -36.78,81.7 -81.84,81.7l-677.61 0c-45.29,0 -81.89,-36.74 -81.89,-81.7l0 -677.76c0,-45.25 36.6,-81.79 81.89,-81.79l677.61 0c45.06,0 81.84,36.54 81.84,81.79l0 677.76z"/>
   <path class="fil1" d="M2902.63 801.55c0,44.96 -36.55,81.7 -81.99,81.7l-677.41 0c-45.26,0 -81.86,-36.74 -81.86,-81.7l0 -677.76c0,-45.25 36.6,-81.79 81.86,-81.79l677.41 0c45.44,0 81.99,36.54 81.99,81.79l0 677.76z"/>
   <path class="fil1" d="M2902.63 2820.53c0,45.2 -36.55,81.75 -81.99,81.75l-677.41 0c-45.26,0 -81.86,-36.55 -81.86,-81.75l0 -677.69c0,-44.92 36.6,-81.76 81.86,-81.76l677.41 0c45.44,0 81.99,36.84 81.99,81.76l0 677.69z"/>
   <path class="fil1" d="M883.49 1810.31c0,45.44 -36.54,81.89 -81.97,81.89l-677.47 0c-45.16,0 -82.04,-36.45 -82.04,-81.89l0 -677.38c0,-45.44 36.88,-81.84 82.04,-81.84l677.47 0c45.43,0 81.97,36.4 81.97,81.84l0 677.38z"/>
   <path class="fil1" d="M1893.18 1810.31c0,45.44 -36.78,81.89 -81.84,81.89l-677.61 0c-45.29,0 -81.89,-36.45 -81.89,-81.89l0 -677.38c0,-45.44 36.6,-81.84 81.89,-81.84l677.61 0c45.06,0 81.84,36.4 81.84,81.84l0 677.38z"/>
   <path class="fil1" d="M883.49 2820.53c0,45.2 -36.54,81.75 -81.97,81.75l-677.47 0c-45.16,0 -82.04,-36.55 -82.04,-81.75l0 -677.69c0,-44.92 36.88,-81.76 82.04,-81.76l677.47 0c45.43,0 81.97,36.84 81.97,81.76l0 677.69z"/>
   <path class="fil1" d="M1893.18 2820.53c0,45.2 -36.78,81.75 -81.84,81.75l-677.61 0c-45.29,0 -81.89,-36.55 -81.89,-81.75l0 -677.69c0,-44.92 36.6,-81.76 81.89,-81.76l677.61 0c45.06,0 81.84,36.84 81.84,81.76l0 677.69z"/>
   <path class="fil1" d="M883.49 3831.31c0,45.2 -36.54,81.61 -81.97,81.61l-677.47 0c-45.16,0 -82.04,-36.41 -82.04,-81.61l0 -677.79c0,-45.16 36.88,-81.67 82.04,-81.67l677.47 0c45.43,0 81.97,36.51 81.97,81.67l0 677.79z"/>
   <path class="fil1" d="M1893.18 3831.31c0,45.2 -36.78,81.61 -81.84,81.61l-677.61 0c-45.29,0 -81.89,-36.41 -81.89,-81.61l0 -677.79c0,-45.16 36.6,-81.67 81.89,-81.67l677.61 0c45.06,0 81.84,36.51 81.84,81.67l0 677.79z"/>
   <path class="fil2" d="M925.31 462.51c0,255.69 -206.79,462.83 -462.48,462.83 -255.58,0 -462.83,-207.14 -462.83,-462.83 0,-255.46 207.25,-462.51 462.83,-462.51 255.69,0 462.48,207.05 462.48,462.51z"/>
  </g>
 </g>
</svg>
